<svg width="198" height="40" viewBox="0 0 198 40" fill="none" xmlns="http://www.w3.org/2000/svg">
<g clip-path="url(#clip0_561_19695)">
<path d="M0 5.72405V13.6687C0 16.0884 2.68512 17.3789 4.32603 15.6851L12.1576 7.74046C13.8731 6.00635 12.7543 2.94141 10.4049 2.94141H2.57324C1.15609 2.94141 0 4.19158 0 5.72405Z" fill="#043873"/>
<path d="M37.0703 2.94141H29.2387C26.9265 2.94141 25.7704 6.00635 27.4859 7.74046L35.3175 15.6851C36.9584 17.3386 39.6436 16.0884 39.6436 13.6687V5.72405C39.6436 4.19158 38.4875 2.94141 37.0703 2.94141Z" fill="#043873"/>
<path d="M21.5929 22.3393L35.3168 36.2928C36.9577 37.9463 39.6429 36.6961 39.6429 34.2764V26.2511C39.6429 25.4849 39.3445 24.759 38.8224 24.2347L21.5929 6.69194C20.5859 5.68374 19.0569 5.68374 18.05 6.69194L0.820454 24.2347C0.298347 24.759 0 25.4849 0 26.2511V34.2764C0 36.6961 2.68512 37.9866 4.32603 36.2928L18.05 22.3393C19.0569 21.3311 20.5859 21.3311 21.5929 22.3393Z" fill="#043873"/>
</g>
<path d="M57.0227 20.9091V31H52.1818V13.5455H56.7955V16.625H57C57.3864 15.6098 58.0341 14.8068 58.9432 14.2159C59.8523 13.6174 60.9545 13.3182 62.25 13.3182C63.4621 13.3182 64.5189 13.5833 65.4205 14.1136C66.322 14.6439 67.0227 15.4015 67.5227 16.3864C68.0227 17.3636 68.2727 18.5303 68.2727 19.8864V31H63.4318V20.75C63.4394 19.6818 63.1667 18.8485 62.6136 18.25C62.0606 17.6439 61.2992 17.3409 60.3295 17.3409C59.678 17.3409 59.1023 17.4811 58.6023 17.7614C58.1098 18.0417 57.7235 18.4508 57.4432 18.9886C57.1705 19.5189 57.0303 20.1591 57.0227 20.9091ZM80.0426 31.3409C78.2472 31.3409 76.7017 30.9773 75.4062 30.25C74.1184 29.5152 73.1259 28.4773 72.429 27.1364C71.732 25.7879 71.3835 24.1932 71.3835 22.3523C71.3835 20.5568 71.732 18.9811 72.429 17.625C73.1259 16.2689 74.107 15.2121 75.3722 14.4545C76.6449 13.697 78.1373 13.3182 79.8494 13.3182C81.0009 13.3182 82.0729 13.5038 83.0653 13.875C84.0653 14.2386 84.9366 14.7879 85.679 15.5227C86.429 16.2576 87.0123 17.1818 87.429 18.2955C87.8456 19.4015 88.054 20.697 88.054 22.1818V23.5114H73.3153V20.5114H83.4972C83.4972 19.8144 83.3456 19.197 83.0426 18.6591C82.7396 18.1212 82.3191 17.7008 81.7812 17.3977C81.2509 17.0871 80.6335 16.9318 79.929 16.9318C79.1941 16.9318 78.5426 17.1023 77.9744 17.4432C77.4138 17.7765 76.9744 18.2273 76.6562 18.7955C76.3381 19.3561 76.1752 19.9811 76.1676 20.6705V23.5227C76.1676 24.3864 76.3267 25.1326 76.6449 25.7614C76.9706 26.3902 77.429 26.875 78.0199 27.2159C78.6108 27.5568 79.3116 27.7273 80.1222 27.7273C80.66 27.7273 81.1525 27.6515 81.5994 27.5C82.0464 27.3485 82.429 27.1212 82.7472 26.8182C83.0653 26.5152 83.3078 26.1439 83.4744 25.7045L87.9517 26C87.7244 27.0758 87.2585 28.0152 86.554 28.8182C85.857 29.6136 84.9555 30.2348 83.8494 30.6818C82.7509 31.1212 81.482 31.3409 80.0426 31.3409ZM94.946 13.5455L98.1506 19.6477L101.435 13.5455H106.401L101.344 22.2727L106.537 31H101.594L98.1506 24.9659L94.7642 31H89.7642L94.946 22.2727L89.946 13.5455H94.946ZM118.56 13.5455V17.1818H108.048V13.5455H118.56ZM110.435 9.36364H115.276V25.6364C115.276 26.0833 115.344 26.4318 115.48 26.6818C115.616 26.9242 115.806 27.0947 116.048 27.1932C116.298 27.2917 116.586 27.3409 116.912 27.3409C117.139 27.3409 117.366 27.322 117.594 27.2841C117.821 27.2386 117.995 27.2045 118.116 27.1818L118.878 30.7841C118.635 30.8598 118.295 30.947 117.855 31.0455C117.416 31.1515 116.882 31.2159 116.253 31.2386C115.086 31.2841 114.063 31.1288 113.185 30.7727C112.313 30.4167 111.635 29.8636 111.151 29.1136C110.666 28.3636 110.427 27.4167 110.435 26.2727V9.36364ZM121.713 31V13.5455H126.327V16.625H126.531C126.895 15.6023 127.501 14.7955 128.349 14.2045C129.198 13.6136 130.213 13.3182 131.395 13.3182C132.592 13.3182 133.611 13.6174 134.452 14.2159C135.293 14.8068 135.853 15.6098 136.134 16.625H136.315C136.671 15.625 137.315 14.8258 138.247 14.2273C139.187 13.6212 140.296 13.3182 141.577 13.3182C143.205 13.3182 144.527 13.8371 145.543 14.875C146.565 15.9053 147.077 17.3674 147.077 19.2614V31H142.247V20.2159C142.247 19.2462 141.99 18.5189 141.474 18.0341C140.959 17.5492 140.315 17.3068 139.543 17.3068C138.664 17.3068 137.978 17.5871 137.486 18.1477C136.993 18.7008 136.747 19.4318 136.747 20.3409V31H132.054V20.1136C132.054 19.2576 131.808 18.5758 131.315 18.0682C130.83 17.5606 130.19 17.3068 129.395 17.3068C128.857 17.3068 128.372 17.4432 127.94 17.7159C127.516 17.9811 127.179 18.3561 126.929 18.8409C126.679 19.3182 126.554 19.8788 126.554 20.5227V31H121.713ZM158.855 31.3409C157.06 31.3409 155.514 30.9773 154.219 30.25C152.931 29.5152 151.938 28.4773 151.241 27.1364C150.545 25.7879 150.196 24.1932 150.196 22.3523C150.196 20.5568 150.545 18.9811 151.241 17.625C151.938 16.2689 152.92 15.2121 154.185 14.4545C155.457 13.697 156.95 13.3182 158.662 13.3182C159.813 13.3182 160.885 13.5038 161.878 13.875C162.878 14.2386 163.749 14.7879 164.491 15.5227C165.241 16.2576 165.825 17.1818 166.241 18.2955C166.658 19.4015 166.866 20.697 166.866 22.1818V23.5114H152.128V20.5114H162.31C162.31 19.8144 162.158 19.197 161.855 18.6591C161.552 18.1212 161.132 17.7008 160.594 17.3977C160.063 17.0871 159.446 16.9318 158.741 16.9318C158.007 16.9318 157.355 17.1023 156.787 17.4432C156.226 17.7765 155.787 18.2273 155.469 18.7955C155.151 19.3561 154.988 19.9811 154.98 20.6705V23.5227C154.98 24.3864 155.139 25.1326 155.457 25.7614C155.783 26.3902 156.241 26.875 156.832 27.2159C157.423 27.5568 158.124 27.7273 158.935 27.7273C159.473 27.7273 159.965 27.6515 160.412 27.5C160.859 27.3485 161.241 27.1212 161.56 26.8182C161.878 26.5152 162.12 26.1439 162.287 25.7045L166.764 26C166.537 27.0758 166.071 28.0152 165.366 28.8182C164.67 29.6136 163.768 30.2348 162.662 30.6818C161.563 31.1212 160.295 31.3409 158.855 31.3409ZM176.457 31.2841C175.132 31.2841 173.931 30.9432 172.855 30.2614C171.787 29.572 170.938 28.5606 170.31 27.2273C169.688 25.8864 169.378 24.2424 169.378 22.2955C169.378 20.2955 169.7 18.6326 170.344 17.3068C170.988 15.9735 171.844 14.9773 172.912 14.3182C173.988 13.6515 175.166 13.3182 176.446 13.3182C177.423 13.3182 178.238 13.4848 178.889 13.8182C179.548 14.1439 180.079 14.553 180.48 15.0455C180.889 15.5303 181.2 16.0076 181.412 16.4773H181.56V7.72727H186.389V31H181.616V28.2045H181.412C181.185 28.6894 180.863 29.1705 180.446 29.6477C180.037 30.1174 179.503 30.5076 178.844 30.8182C178.192 31.1288 177.397 31.2841 176.457 31.2841ZM177.991 27.4318C178.772 27.4318 179.431 27.2197 179.969 26.7955C180.514 26.3636 180.931 25.7614 181.219 24.9886C181.514 24.2159 181.662 23.3106 181.662 22.2727C181.662 21.2348 181.518 20.3333 181.23 19.5682C180.942 18.803 180.526 18.2121 179.98 17.7955C179.435 17.3788 178.772 17.1705 177.991 17.1705C177.196 17.1705 176.526 17.3864 175.98 17.8182C175.435 18.25 175.022 18.8485 174.741 19.6136C174.461 20.3788 174.321 21.2652 174.321 22.2727C174.321 23.2879 174.461 24.1856 174.741 24.9659C175.029 25.7386 175.442 26.3447 175.98 26.7841C176.526 27.2159 177.196 27.4318 177.991 27.4318Z" fill="#043873"/>
<defs>
<clipPath id="clip0_561_19695">
<rect width="39.6429" height="34.1176" fill="white" transform="translate(0 2.94141)"/>
</clipPath>
</defs>
</svg>
