<svg width="40" height="36" viewBox="0 0 40 36" fill="none" xmlns="http://www.w3.org/2000/svg">
<g clip-path="url(#clip0_561_19695)">
<path d="M0 3.72405V11.6687C0 14.0884 2.68512 15.3789 4.32603 13.6851L12.1576 5.74046C13.8731 4.00635 12.7543 0.941406 10.4049 0.941406H2.57324C1.15609 0.941406 0 2.19158 0 3.72405Z" fill="#043873"/>
<path d="M37.0703 0.941406H29.2387C26.9265 0.941406 25.7704 4.00635 27.4859 5.74046L35.3175 13.6851C36.9584 15.3386 39.6436 14.0884 39.6436 11.6687V3.72405C39.6436 2.19158 38.4875 0.941406 37.0703 0.941406Z" fill="#043873"/>
<path d="M21.5929 20.3393L35.3168 34.2928C36.9577 35.9463 39.6429 34.6961 39.6429 32.2764V24.2511C39.6429 23.4849 39.3445 22.759 38.8224 22.2347L21.5929 4.69194C20.5859 3.68374 19.0569 3.68374 18.05 4.69194L0.820454 22.2347C0.298347 22.759 0 23.4849 0 24.2511V32.2764C0 34.6961 2.68512 35.9866 4.32603 34.2928L18.05 20.3393C19.0569 19.3311 20.5859 19.3311 21.5929 20.3393Z" fill="#043873"/>
</g>
<defs>
<clipPath id="clip0_561_19695">
<rect width="39.6429" height="34.1176" fill="white" transform="translate(0 0.941406)"/>
</clipPath>
</defs>
</svg>
